<svg width="249" height="249" viewBox="0 0 249 249" fill="none" xmlns="http://www.w3.org/2000/svg">
<path d="M181.204 109.949C179.629 106.24 177.528 103.013 174.903 100.171V120.256C174.664 116.644 173.853 113.176 172.469 109.949C170.75 105.903 168.364 102.338 165.357 99.3521C163.257 97.3291 160.87 95.5468 158.245 94.1018V119.871C157.958 116.355 157.147 113.031 155.81 109.852C154.092 105.758 151.658 102.194 148.507 99.1593C145.453 96.1248 141.73 93.7165 137.434 91.9825C133.186 90.2003 128.46 89.2852 123.305 89.2852C118.15 89.2852 113.377 90.2003 109.081 91.9825C104.785 93.7165 101.062 96.1248 97.9118 99.1593C94.857 102.194 92.4227 105.758 90.7043 109.852C89.3201 113.128 88.5086 116.644 88.27 120.305V94.1018C85.6447 95.5468 83.2582 97.281 81.158 99.3521C78.1032 102.387 75.7166 105.903 74.0459 109.949C72.8049 112.887 71.9935 115.97 71.6593 119.197V100.171C68.9864 103.013 66.8862 106.24 65.3588 109.949C63.6405 113.946 62.7812 118.233 62.7812 122.761C62.7812 127.289 63.6405 131.624 65.3588 135.67C66.9339 139.282 69.0341 142.509 71.6593 145.351V126.325C71.9935 129.553 72.7572 132.683 74.0459 135.67C75.7643 139.668 78.1509 143.184 81.158 146.17C83.2582 148.193 85.6447 149.975 88.27 151.468V125.314C88.5086 128.974 89.3201 132.491 90.7043 135.814C92.4227 139.86 94.8093 143.376 97.9118 146.411C101.062 149.445 104.785 151.854 109.081 153.684C113.377 155.418 118.102 156.285 123.305 156.285C128.508 156.285 133.186 155.418 137.434 153.684C141.73 151.902 145.453 149.445 148.507 146.411C151.658 143.376 154.092 139.812 155.81 135.814C157.147 132.587 157.958 129.264 158.245 125.747V151.468C160.87 149.975 163.257 148.241 165.357 146.17C168.412 143.135 170.798 139.668 172.469 135.67C173.853 132.346 174.664 128.878 174.903 125.266V145.351C177.576 142.509 179.676 139.282 181.204 135.67C182.922 131.624 183.781 127.289 183.781 122.761C183.781 118.233 182.922 113.946 181.204 109.949ZM138.484 129.505C137.672 131.576 136.527 133.358 135.047 134.899C133.615 136.392 131.897 137.548 129.892 138.415C127.887 139.282 125.644 139.716 123.257 139.716C120.871 139.716 118.532 139.282 116.527 138.415C114.475 137.548 112.756 136.344 111.277 134.899C109.845 133.358 108.747 131.528 107.936 129.505C107.124 127.385 106.742 125.169 106.742 122.809C106.742 120.449 107.124 118.233 107.936 116.21C108.747 114.187 109.845 112.357 111.277 110.816C112.756 109.274 114.522 108.07 116.527 107.203C118.58 106.336 120.775 105.903 123.162 105.903C125.549 105.903 127.792 106.336 129.797 107.203C131.849 108.07 133.567 109.274 135.047 110.816C136.527 112.357 137.672 114.187 138.484 116.307C139.295 118.378 139.677 120.545 139.677 122.905C139.677 125.266 139.295 127.385 138.484 129.505Z" fill="#ED131C"/>
<path d="M70.4086 66.5685L72.3482 68.4251L66.7264 74.2981L64.7976 72.4518L65.4151 69.6375C65.5054 69.2395 65.5855 68.8593 65.6554 68.4971C65.7322 68.1276 65.7741 67.7801 65.7812 67.4546C65.7882 67.1291 65.7534 66.8328 65.6769 66.5658C65.6003 66.2987 65.4573 66.0648 65.2478 65.8643C65.1325 65.7678 65.0106 65.6927 64.8822 65.6389C64.7537 65.5851 64.6223 65.5632 64.4882 65.5732C64.3468 65.5763 64.2062 65.6148 64.0663 65.6886C63.9193 65.7554 63.7766 65.8611 63.6383 66.0056C63.5138 66.1356 63.4217 66.2897 63.3619 66.4678C63.2949 66.639 63.2635 66.8165 63.2675 67.0003C63.2715 67.1841 63.311 67.3742 63.386 67.5706C63.468 67.7598 63.5885 67.9375 63.7478 68.1038L61.4821 69.7765C61.3951 69.6794 61.2859 69.5332 61.1543 69.3381C61.0227 69.1429 60.8974 68.9122 60.7785 68.6461C60.6592 68.3658 60.5639 68.0531 60.4927 67.7081C60.4285 67.3559 60.4239 66.9846 60.479 66.5944C60.5338 66.1901 60.6661 65.7699 60.8758 65.3339C61.0925 64.8906 61.4186 64.4415 61.8543 63.9864C61.9165 63.9214 62.0309 63.8163 62.1975 63.6712C62.3638 63.512 62.5724 63.3518 62.8235 63.1907C63.0746 63.0296 63.3614 62.8819 63.6838 62.7476C64.0062 62.6132 64.3511 62.535 64.7184 62.5128C65.0784 62.4837 65.4544 62.5321 65.8461 62.6579C66.2379 62.7837 66.6355 63.019 67.0391 63.3639C67.3997 63.6813 67.6656 64.0327 67.8366 64.418C68.0005 64.7963 68.1117 65.1935 68.1703 65.6095C68.2289 66.0255 68.2487 66.4459 68.2297 66.8707C68.2035 67.2886 68.1733 67.6888 68.1393 68.0715L68.0193 69.8671L67.6081 69.4941L70.4086 66.5685ZM75.0384 63.0052C75.3028 62.7915 75.4805 62.5579 75.5714 62.3045C75.6638 62.0369 75.6851 61.769 75.6354 61.5006C75.5871 61.2182 75.4826 60.9298 75.3219 60.6354C75.1611 60.341 74.9645 60.0499 74.7319 59.7622C74.4993 59.4744 74.256 59.221 74.0019 59.0021C73.7478 58.7831 73.4909 58.6243 73.2312 58.5256C72.9652 58.4192 72.6987 58.3838 72.4318 58.4195C72.1587 58.4474 71.8899 58.5682 71.6254 58.7819C71.3532 59.0019 71.1748 59.2425 71.0902 59.5037C70.9993 59.7571 70.9741 60.0282 71.0145 60.317C71.0565 60.5916 71.1578 60.8761 71.3186 61.1705C71.4793 61.4649 71.676 61.756 71.9086 62.0438C72.1411 62.3315 72.3844 62.5849 72.6385 62.8039C72.8926 63.0228 73.1527 63.1855 73.4187 63.292C73.6862 63.3843 73.9566 63.4166 74.2297 63.3887C74.4966 63.353 74.7662 63.2252 75.0384 63.0052ZM76.726 65.0935C76.1349 65.5712 75.5141 65.8929 74.8637 66.0585C74.221 66.2179 73.5855 66.2429 72.9572 66.1335C72.3288 66.0242 71.7248 65.7859 71.1451 65.4186C70.5592 65.0435 70.0242 64.5566 69.5402 63.9577C69.0563 63.3588 68.6955 62.7374 68.4581 62.0936C68.2144 61.442 68.105 60.7975 68.13 60.1602C68.1549 59.5229 68.3128 58.9068 68.6034 58.3118C68.9019 57.7107 69.3467 57.1712 69.9378 56.6935C70.5211 56.2221 71.1341 55.9068 71.7768 55.7474C72.4194 55.5881 73.0549 55.5631 73.6833 55.6724C74.3117 55.7817 74.9188 56.0239 75.5048 56.399C76.0844 56.7663 76.6163 57.2494 77.1002 57.8483C77.5842 58.4471 77.9481 59.0724 78.1918 59.724C78.4292 60.3678 78.5355 61.0084 78.5105 61.6457C78.4855 62.2831 78.3277 62.8992 78.037 63.4941C77.7464 64.089 77.3093 64.6221 76.726 65.0935ZM76.9946 55.4614L82.6701 51.8633L84.1078 54.131L78.4322 57.7291L76.9946 55.4614ZM79.9606 51.3432L83.4141 56.7908L81.1337 58.2364L77.6802 52.7889L79.9606 51.3432ZM85.579 46.7089L88.3677 45.4861L89.9459 49.0853L93.1604 47.6757L91.5822 44.0765L94.3709 42.8537L98.5875 52.4699L95.7988 53.6927L94.2387 50.1347L91.0241 51.5443L92.5843 55.1022L89.7956 56.325L85.579 46.7089ZM103.283 40.2945L109.711 49.4045L106.618 50.2652L100.433 41.5237L102.557 40.9325L101.821 51.6006L98.7283 52.4613L99.4821 41.3524L103.283 40.2945ZM100.616 50.2386L99.8964 47.652L106.125 45.9184L106.845 48.5051L100.616 50.2386ZM108.429 39.0843L117.334 37.8842L118.736 48.2901L115.704 48.6988L114.458 39.4524L116.176 40.7495L110.304 41.5409L111.603 39.8371L112.85 49.0835L109.832 49.4902L108.429 39.0843ZM124.134 37.6785C124.644 37.6675 125.125 37.7172 125.578 37.8275C126.04 37.9276 126.449 38.1138 126.805 38.3862C127.161 38.6586 127.444 39.0177 127.653 39.4633C127.873 39.8986 127.99 40.4513 128.004 41.1211C128.019 41.8109 127.921 42.3882 127.711 42.8528C127.501 43.3074 127.219 43.6736 126.865 43.9512C126.52 44.2287 126.12 44.4274 125.662 44.5472C125.214 44.6569 124.756 44.7167 124.286 44.7268L120.761 44.8026L120.706 42.2232L123.84 42.1558C124.02 42.1519 124.18 42.1285 124.319 42.0855C124.458 42.0425 124.572 41.98 124.66 41.8981C124.758 41.816 124.831 41.7144 124.878 41.5934C124.936 41.4721 124.963 41.3365 124.96 41.1865C124.953 40.8566 124.842 40.6189 124.629 40.4735C124.426 40.3178 124.149 40.2437 123.799 40.2512L120.965 40.3122L122.342 38.7822L122.545 48.215L119.501 48.2805L119.275 37.7829L124.134 37.6785ZM135.364 38.4972L138.031 49.323L134.838 48.9979L132.263 38.6035L134.456 38.8269L129.884 48.4934L126.69 48.1683L131.44 38.0976L135.364 38.4972ZM129.258 46.7863L129.53 44.1151L135.962 44.77L135.69 47.4412L129.258 46.7863ZM144.342 45.684L144.34 45.051C145.111 45.2675 145.7 45.5329 146.108 45.8471C146.528 46.154 146.827 46.4728 147.004 46.8035C147.182 47.1343 147.269 47.4537 147.267 47.7617C147.274 48.0721 147.251 48.3391 147.197 48.5627C147.055 49.1558 146.821 49.6138 146.496 49.9367C146.172 50.2597 145.808 50.4859 145.407 50.6155C145.017 50.7377 144.613 50.7946 144.193 50.786C143.776 50.7678 143.397 50.7177 143.057 50.6357L138.099 49.4414L140.558 39.2334L145.662 40.4628C146.206 40.594 146.65 40.7781 146.994 41.0153C147.35 41.2451 147.617 41.5047 147.794 41.7943C147.983 42.0764 148.094 42.3859 148.126 42.7228C148.16 43.0499 148.14 43.369 148.065 43.6801C147.953 44.1468 147.769 44.5243 147.514 44.8127C147.272 45.0937 146.983 45.3121 146.647 45.4678C146.313 45.6137 145.948 45.7005 145.55 45.7282C145.153 45.7559 144.75 45.7412 144.342 45.684ZM141.235 49.4253L141.018 47.5063L143.22 48.0367C143.512 48.1069 143.751 48.0976 143.937 48.0087C144.125 47.91 144.248 47.7392 144.307 47.4962C144.372 47.2239 144.332 47.0084 144.185 46.8496C144.04 46.6811 143.842 46.5664 143.589 46.5055L141.445 45.9891L141.862 43.6826L144.006 44.1989C144.249 44.2575 144.458 44.2411 144.635 44.1499C144.823 44.0512 144.944 43.8901 144.998 43.6665C145.024 43.5596 145.022 43.4613 144.992 43.3719C144.974 43.275 144.938 43.1892 144.884 43.1145C144.83 43.0397 144.758 42.9761 144.668 42.9235C144.58 42.8612 144.473 42.8148 144.346 42.7844L142.144 42.254L143.342 40.6756L141.235 49.4253ZM147.595 51.9054L146.656 51.5463L147.567 49.1646L148.141 49.3844C148.328 49.4558 148.492 49.4756 148.633 49.4438C148.777 49.4026 148.905 49.3338 149.017 49.2374C149.132 49.1317 149.229 49.003 149.309 48.8513C149.388 48.6997 149.455 48.5538 149.508 48.4137L151.85 42.2914L159.934 45.3837L156.183 55.1907L153.339 54.1027L156.672 45.3886L157.546 47.3449L152.334 45.3512L154.29 44.4775L152.249 49.8153C151.802 50.9828 151.204 51.7337 150.455 52.0682C149.716 52.4063 148.762 52.352 147.595 51.9054ZM163.851 59.3185L156.861 55.5628L161.831 46.3134L168.821 50.0691L167.607 52.3286L163.299 50.0141L162.582 51.3487L166.467 53.436L165.36 55.4973L161.475 53.41L160.758 54.7445L165.065 57.059L163.851 59.3185ZM170.497 51.1833L172.979 52.9474L170.702 56.1507L173.563 58.1842L175.84 54.9808L178.322 56.7449L172.239 65.3034L169.757 63.5393L172.008 60.3727L169.147 58.3393L166.896 61.5059L164.414 59.7419L170.497 51.1833ZM174.478 65.2104L184.806 62.6956L186.941 64.6949L179.765 72.3593L177.542 70.278L183.724 63.6757L185.191 65.3573L174.958 67.8583L172.823 65.8591L180 58.1947L182.222 60.276L176.081 66.8345L174.478 65.2104ZM181.997 72.5875L192.577 71.5609L194.408 73.8424L186.218 80.413L184.312 78.0379L191.367 72.3778L192.581 74.2502L182.097 75.2767L180.267 72.9952L188.457 66.4245L190.362 68.7996L183.354 74.4222L181.997 72.5875ZM191.68 66.6075L192.854 68.07C192.76 68.1451 192.691 68.2264 192.645 68.3139C192.608 68.3952 192.588 68.4819 192.585 68.574C192.582 68.6662 192.594 68.7528 192.62 68.834C192.653 68.923 192.701 69.0065 192.764 69.0845C192.82 69.1547 192.885 69.2116 192.958 69.2552C193.038 69.3066 193.116 69.3401 193.193 69.3556C193.283 69.3727 193.376 69.3686 193.471 69.3435C193.567 69.3184 193.661 69.2683 193.755 69.1932L194.928 70.6557C194.655 70.8747 194.366 71.0172 194.06 71.0833C193.761 71.143 193.459 71.1419 193.153 71.0798C192.861 71.0193 192.575 70.9026 192.295 70.7296C192.023 70.5504 191.774 70.3204 191.549 70.0396C191.33 69.7666 191.159 69.474 191.037 69.1618C190.929 68.8512 190.874 68.5428 190.872 68.2367C190.884 67.9322 190.952 67.6408 191.075 67.3626C191.205 67.0782 191.407 66.8265 191.68 66.6075Z" fill="white"/>
<path d="M81.901 186.218L82.1529 185.637C82.7724 186.145 83.206 186.624 83.4537 187.075C83.7155 187.524 83.8614 187.936 83.8916 188.31C83.9217 188.684 83.874 189.012 83.7486 189.294C83.6312 189.581 83.503 189.816 83.3641 190C82.9956 190.486 82.598 190.812 82.1711 190.978C81.7443 191.143 81.321 191.205 80.9012 191.163C80.4954 191.119 80.102 191.009 79.7208 190.833C79.3458 190.649 79.0187 190.452 78.7398 190.24L74.6752 187.16L81.0173 178.792L85.2014 181.963C85.6477 182.301 85.981 182.648 86.2012 183.003C86.4355 183.356 86.5757 183.701 86.622 184.037C86.6824 184.371 86.6597 184.699 86.5541 185.021C86.4545 185.334 86.3081 185.618 86.1148 185.873C85.8249 186.256 85.5055 186.528 85.1567 186.691C84.8219 186.851 84.4695 186.935 84.0994 186.943C83.7354 186.943 83.3657 186.877 82.9904 186.743C82.6151 186.609 82.252 186.434 81.901 186.218ZM77.555 188.401L78.1253 186.556L79.9304 187.924C80.1695 188.106 80.3921 188.193 80.5981 188.186C80.8102 188.171 80.9918 188.064 81.1428 187.864C81.3119 187.641 81.361 187.428 81.29 187.223C81.225 187.011 81.089 186.826 80.8818 186.669L79.1244 185.337L80.4302 183.391L82.1875 184.723C82.3868 184.874 82.5854 184.943 82.7835 184.93C82.9956 184.915 83.1711 184.816 83.31 184.632C83.3765 184.545 83.4139 184.454 83.4224 184.36C83.4449 184.264 83.4463 184.171 83.4268 184.081C83.4072 183.991 83.3667 183.904 83.3051 183.819C83.2496 183.727 83.17 183.642 83.0664 183.563L81.2612 182.195L82.9911 181.229L77.555 188.401ZM95.7069 188.061L98.3924 189.496L93.4429 198.756L90.7574 197.321L95.7069 188.061ZM86.7491 195.179L82.4761 192.895L87.4256 183.634L90.111 185.07L85.6636 193.391L85.1007 191.389L87.5613 192.704C87.87 192.869 88.1522 192.935 88.4082 192.902C88.6776 192.864 88.8901 192.7 89.0457 192.409C89.1164 192.277 89.1535 192.144 89.1572 192.01C89.1697 191.88 89.1507 191.757 89.1002 191.639C89.0497 191.521 88.9677 191.409 88.8543 191.303C88.7409 191.197 88.6092 191.104 88.4593 191.024L85.7341 189.568L86.9502 187.292L90.0723 188.961C90.4691 189.173 90.8357 189.431 91.1719 189.736C91.5216 190.036 91.7916 190.39 91.9818 190.798C92.172 191.206 92.2557 191.664 92.2329 192.174C92.2237 192.679 92.0564 193.236 91.7311 193.844C91.4153 194.435 91.0587 194.88 90.6614 195.178C90.2688 195.467 89.8522 195.652 89.4115 195.734C88.9797 195.821 88.5326 195.809 88.0704 195.698C87.6216 195.583 87.1812 195.41 86.7491 195.179ZM99.3186 200.899L94.7431 199.306L98.1962 189.39L101.072 190.392L97.9689 199.302L97.1024 197.412L99.7655 198.339C100.096 198.454 100.374 198.493 100.599 198.455C100.833 198.42 101.005 198.246 101.113 197.935C101.166 197.784 101.185 197.653 101.171 197.542C101.16 197.422 101.117 197.317 101.042 197.227C100.971 197.128 100.872 197.046 100.747 196.981C100.624 196.907 100.478 196.84 100.308 196.781L97.3617 195.755L98.2052 193.332L101.548 194.497C101.992 194.651 102.412 194.845 102.807 195.078C103.203 195.311 103.524 195.603 103.773 195.954C104.03 196.309 104.186 196.728 104.24 197.213C104.303 197.701 104.219 198.275 103.989 198.936C103.772 199.56 103.492 200.044 103.149 200.391C102.819 200.731 102.445 200.967 102.029 201.097C101.623 201.231 101.184 201.274 100.714 201.226C100.256 201.173 99.7908 201.064 99.3186 200.899ZM100.052 190.036L105.69 192L104.846 194.422L99.2084 192.459L100.052 190.036ZM111.581 204.034L103.824 202.361L106.037 192.097L113.794 193.77L113.253 196.277L108.473 195.246L108.154 196.727L112.465 197.657L111.971 199.944L107.66 199.015L107.341 200.496L112.121 201.526L111.581 204.034ZM118.598 194.165C119.106 194.209 119.579 194.311 120.017 194.47C120.465 194.619 120.852 194.849 121.176 195.158C121.5 195.468 121.742 195.856 121.902 196.321C122.073 196.778 122.129 197.34 122.071 198.007C122.01 198.695 121.851 199.258 121.591 199.697C121.333 200.126 121.012 200.459 120.63 200.697C120.258 200.935 119.838 201.089 119.37 201.159C118.913 201.219 118.451 201.229 117.982 201.188L114.471 200.88L114.696 198.31L117.819 198.583C117.998 198.599 118.16 198.593 118.302 198.566C118.445 198.538 118.565 198.488 118.662 198.416C118.768 198.345 118.852 198.252 118.912 198.137C118.982 198.023 119.024 197.891 119.037 197.742C119.066 197.413 118.982 197.165 118.786 196.997C118.601 196.82 118.334 196.716 117.985 196.686L115.161 196.438L116.697 195.067L115.873 204.466L112.84 204.2L113.756 193.74L118.598 194.165ZM122.997 203.277L128.403 194.125L131.325 193.992L131.806 204.481L128.764 204.62L128.35 195.584L130.578 195.708L125.228 204.782L122.306 204.916L121.825 194.427L124.867 194.287L125.278 203.263L122.997 203.277ZM139.916 192.038C140.537 191.884 141.135 191.822 141.71 191.854C142.285 191.887 142.822 191.995 143.321 192.18C143.828 192.352 144.292 192.603 144.714 192.931C145.133 193.249 145.5 193.626 145.815 194.063L143.401 195.731C143.251 195.5 143.073 195.302 142.867 195.137C142.661 194.972 142.433 194.843 142.184 194.751C141.941 194.646 141.679 194.588 141.398 194.575C141.124 194.551 140.846 194.574 140.565 194.644C140.186 194.738 139.854 194.893 139.568 195.108C139.291 195.322 139.066 195.578 138.894 195.879C138.729 196.168 138.619 196.494 138.565 196.857C138.519 197.209 138.54 197.564 138.63 197.923C138.719 198.282 138.868 198.611 139.076 198.91C139.292 199.196 139.542 199.433 139.825 199.62C140.116 199.795 140.438 199.91 140.793 199.966C141.147 200.023 141.508 200.005 141.877 199.913C142.168 199.84 142.43 199.734 142.663 199.593C142.896 199.453 143.097 199.29 143.267 199.103C143.435 198.907 143.571 198.687 143.675 198.445C143.777 198.193 143.846 197.928 143.88 197.652L146.783 198.011C146.709 198.545 146.562 199.05 146.341 199.528C146.117 199.996 145.828 200.428 145.474 200.826C145.119 201.223 144.695 201.566 144.2 201.854C143.705 202.142 143.146 202.364 142.525 202.518C141.71 202.721 140.929 202.771 140.182 202.669C139.433 202.557 138.752 202.324 138.138 201.972C137.535 201.617 137.019 201.158 136.59 200.595C136.159 200.023 135.854 199.377 135.675 198.659C135.496 197.941 135.464 197.233 135.579 196.534C135.691 195.826 135.931 195.174 136.297 194.578C136.674 193.979 137.168 193.459 137.78 193.018C138.389 192.568 139.101 192.241 139.916 192.038ZM151.106 194.151L150.737 193.637C151.491 193.366 152.125 193.24 152.639 193.26C153.159 193.266 153.587 193.352 153.924 193.519C154.26 193.685 154.517 193.895 154.694 194.147C154.88 194.395 155.016 194.626 155.102 194.84C155.329 195.406 155.405 195.914 155.328 196.366C155.25 196.817 155.086 197.212 154.834 197.55C154.588 197.876 154.291 198.157 153.944 198.393C153.594 198.621 153.256 198.8 152.932 198.93L148.2 200.834L144.281 191.092L149.152 189.133C149.672 188.924 150.14 188.816 150.558 188.81C150.981 188.79 151.349 188.847 151.661 188.98C151.979 189.1 152.249 189.288 152.47 189.544C152.688 189.791 152.857 190.062 152.976 190.359C153.155 190.805 153.225 191.219 153.185 191.601C153.15 191.971 153.041 192.316 152.858 192.638C152.671 192.95 152.424 193.233 152.116 193.486C151.808 193.739 151.472 193.961 151.106 194.151ZM150.745 199.001L149.455 197.564L151.557 196.718C151.835 196.607 152.024 196.46 152.124 196.28C152.22 196.09 152.222 195.88 152.129 195.648C152.024 195.388 151.866 195.236 151.654 195.192C151.439 195.138 151.21 195.16 150.969 195.257L148.923 196.08L147.925 193.96L149.97 193.137C150.202 193.043 150.364 192.908 150.454 192.732C150.551 192.542 150.556 192.341 150.47 192.127C150.429 192.025 150.37 191.947 150.294 191.891C150.223 191.822 150.144 191.773 150.057 191.744C149.97 191.714 149.874 191.704 149.77 191.714C149.662 191.714 149.548 191.738 149.427 191.787L147.326 192.632L147.386 190.652L150.745 199.001ZM161.443 188.521C161.258 188.2 161.027 187.93 160.749 187.709C160.467 187.48 160.159 187.317 159.826 187.22C159.502 187.119 159.162 187.09 158.806 187.133C158.45 187.177 158.104 187.297 157.766 187.492C157.437 187.682 157.164 187.92 156.948 188.206C156.733 188.492 156.588 188.801 156.514 189.133C156.434 189.455 156.419 189.799 156.468 190.164C156.52 190.514 156.639 190.85 156.824 191.17C157.014 191.499 157.248 191.774 157.525 191.995C157.803 192.216 158.104 192.377 158.428 192.479C158.756 192.566 159.098 192.589 159.454 192.545C159.809 192.501 160.156 192.382 160.494 192.187C160.832 191.992 161.108 191.751 161.324 191.465C161.54 191.178 161.687 190.874 161.767 190.551C161.841 190.22 161.852 189.878 161.799 189.528C161.747 189.177 161.628 188.841 161.443 188.521ZM154.187 192.693C153.817 192.052 153.591 191.38 153.508 190.677C153.421 189.966 153.471 189.273 153.659 188.598C153.856 187.919 154.187 187.283 154.653 186.691C155.114 186.089 155.709 185.579 156.436 185.159C157.164 184.739 157.903 184.479 158.654 184.381C159.4 184.273 160.113 184.306 160.791 184.481C161.477 184.65 162.107 184.951 162.679 185.382C163.247 185.805 163.716 186.337 164.086 186.978C164.456 187.619 164.684 188.295 164.772 189.006C164.854 189.709 164.797 190.4 164.601 191.08C164.413 191.754 164.088 192.392 163.627 192.993C163.161 193.586 162.564 194.092 161.836 194.512C161.109 194.932 160.372 195.196 159.626 195.303C158.875 195.402 158.156 195.367 157.469 195.197C156.791 195.023 156.168 194.724 155.601 194.302C155.028 193.87 154.557 193.334 154.187 192.693ZM173.599 186.081L167.375 191.003L160.862 182.766L167.086 177.845L168.677 179.857L164.842 182.89L165.781 184.078L169.241 181.343L170.692 183.178L167.233 185.914L168.173 187.102L172.008 184.069L173.599 186.081ZM162.769 179.156C162.967 179.407 163.04 179.693 162.989 180.014C162.937 180.336 162.774 180.605 162.499 180.822C162.225 181.039 161.921 181.139 161.588 181.121C161.264 181.098 160.999 180.956 160.794 180.698C160.596 180.447 160.523 180.16 160.574 179.839C160.634 179.511 160.801 179.239 161.076 179.022C161.35 178.805 161.65 178.708 161.975 178.732C162.299 178.755 162.564 178.897 162.769 179.156ZM165.251 177.192C165.45 177.443 165.519 177.733 165.459 178.06C165.408 178.382 165.248 178.648 164.982 178.859C164.707 179.076 164.404 179.176 164.071 179.158C163.746 179.135 163.482 178.993 163.277 178.734C163.079 178.483 163.005 178.197 163.057 177.876C163.117 177.548 163.284 177.276 163.558 177.059C163.825 176.848 164.121 176.754 164.445 176.778C164.778 176.795 165.047 176.934 165.251 177.192Z" fill="white"/>
</svg>
