<svg width="233" height="151" viewBox="0 0 233 151" fill="none" xmlns="http://www.w3.org/2000/svg">
<path d="M1.96286 56.1511C2.59871 56.7557 3.3728 57.2505 4.25747 57.6078C5.14214 57.9651 6.10973 58.13 7.16028 58.13C7.96201 58.13 8.70846 58.02 9.39961 57.8276C10.0908 57.6352 10.7266 57.333 11.2795 56.9482C11.8601 56.5634 12.3301 56.1236 12.7448 55.6289C13.1595 55.1067 13.4912 54.5295 13.74 53.9248L10.3119 52.6331C10.1737 52.963 10.0078 53.2652 9.81428 53.54C9.62076 53.8148 9.37195 54.0347 9.12314 54.2271C8.84668 54.392 8.54259 54.5295 8.21084 54.6395C7.87909 54.7494 7.51968 54.7768 7.16028 54.7768C6.66265 54.7768 6.22032 54.6945 5.80564 54.5021C5.39095 54.3372 5.03155 54.0898 4.72745 53.7874C4.42334 53.4851 4.20217 53.1003 4.0363 52.688C3.87042 52.2482 3.78748 51.8085 3.78748 51.3413C3.78748 50.874 3.87042 50.4068 4.0363 49.9946C4.20217 49.5548 4.45099 49.1974 4.72745 48.8951C5.03155 48.5928 5.39095 48.3455 5.80564 48.1531C6.22032 47.9882 6.6903 47.8782 7.16028 47.8782C7.51968 47.8782 7.87909 47.9332 8.21084 48.0431C8.54259 48.153 8.84668 48.2905 9.12314 48.4829C9.39959 48.6753 9.62076 48.8952 9.81428 49.1701C10.0355 49.4449 10.2013 49.7197 10.3119 50.0221L13.7676 48.7302C13.5188 48.0981 13.1871 47.5209 12.7724 47.0262C12.3577 46.504 11.8601 46.0642 11.3072 45.6795C10.7266 45.2947 10.1184 45.0198 9.42724 44.7999C8.73609 44.5801 7.98966 44.4701 7.18793 44.4701C6.13739 44.4701 5.14213 44.6626 4.2851 45.0199C3.40043 45.3772 2.62636 45.8445 1.99051 46.4766C1.35465 47.0813 0.857009 47.8233 0.525258 48.6478C0.165861 49.4724 0 50.3244 0 51.2589C0 52.1934 0.165861 53.0728 0.525258 53.8973C0.884655 54.7219 1.3823 55.4365 1.99051 56.0412L1.96286 56.1511Z" fill="white"/>
<path d="M14.1822 54.0073C14.5416 54.8318 15.0393 55.5464 15.6475 56.151C16.2833 56.7557 17.0574 57.2505 17.9421 57.6078C18.8267 57.9651 19.7944 58.13 20.8449 58.13C21.8955 58.13 22.8631 57.9651 23.7477 57.6078C24.6324 57.2505 25.3788 56.7557 26.0147 56.151C26.6505 55.5464 27.1482 54.8318 27.5076 54.0073C27.867 53.1828 28.0328 52.3032 28.0328 51.3687C28.0328 50.4343 27.867 49.5547 27.5076 48.7577C27.1482 47.9331 26.6505 47.2186 26.0147 46.5864C25.3788 45.9818 24.6324 45.487 23.7477 45.1297C22.8631 44.7724 21.9231 44.5801 20.8449 44.5801C19.7667 44.5801 18.7991 44.7724 17.9421 45.1297C17.0574 45.487 16.2833 45.9543 15.6475 46.5864C15.0116 47.1911 14.514 47.9331 14.1822 48.7577C13.8228 49.5822 13.657 50.4343 13.657 51.3687C13.657 52.3032 13.8228 53.1828 14.1822 54.0073ZM17.7209 50.022C17.8868 49.6097 18.1079 49.2524 18.4121 48.9226C18.7162 48.6202 19.0756 48.373 19.4902 48.1806C19.9049 48.0157 20.3749 47.9056 20.8449 47.9056C21.3149 47.9056 21.7848 47.9882 22.1995 48.1806C22.6142 48.3455 22.9736 48.5928 23.2777 48.9226C23.5818 49.2249 23.803 49.6097 23.9689 50.022C24.1347 50.4343 24.2177 50.874 24.2177 51.3687C24.2177 51.8635 24.1347 52.2757 23.9689 52.7154C23.803 53.1277 23.5818 53.4851 23.2777 53.8149C22.9736 54.1172 22.6419 54.3646 22.2272 54.5295C21.8125 54.6944 21.3425 54.8043 20.8725 54.8043C20.4026 54.8043 19.9049 54.7219 19.4902 54.5295C19.0756 54.3646 18.7162 54.1172 18.4121 53.8149C18.1079 53.5126 17.8868 53.1277 17.7209 52.7154C17.555 52.2757 17.4721 51.836 17.4721 51.3687C17.4721 50.9015 17.555 50.4343 17.7209 50.022Z" fill="white"/>
<path d="M40.1145 49.5548C40.3357 49.1151 40.4463 48.6204 40.4463 48.0157C40.4463 47.6034 40.3633 47.2185 40.2251 46.8337C40.0869 46.4215 39.8657 46.0918 39.5339 45.7895C39.2298 45.4871 38.8151 45.2397 38.3175 45.0748C37.8199 44.8825 37.2117 44.7999 36.5206 44.7999H28.4203V57.9926H36.3547C36.797 57.9926 37.267 57.9375 37.7922 57.8551C38.3175 57.7451 38.7875 57.5528 39.2298 57.278C39.6722 57.0031 40.0592 56.6182 40.3357 56.1235C40.6398 55.6288 40.778 54.9966 40.778 54.2271C40.778 53.9247 40.7227 53.595 40.6398 53.2377C40.5569 52.8529 40.3357 52.4682 40.0316 52.1384C39.7275 51.7811 39.2575 51.4787 38.6493 51.2314C38.5387 51.1764 38.4281 51.149 38.3175 51.1215C38.6216 50.9841 38.9257 50.819 39.1745 50.6266C39.5616 50.3243 39.8381 49.9944 40.0592 49.5822L40.1145 49.5548ZM36.0506 48.0706C36.0506 48.0706 36.2717 48.153 36.3823 48.2355C36.4929 48.3179 36.5482 48.4005 36.6035 48.5104C36.6588 48.6203 36.6864 48.7576 36.6864 48.8951C36.6864 49.1974 36.5758 49.4173 36.3823 49.5822C36.1888 49.7471 35.94 49.8571 35.6359 49.8571H32.4842V47.9882H35.6359C35.8017 47.9882 35.94 47.9881 36.0782 48.0706H36.0506ZM36.6588 54.502C36.4653 54.6669 36.1611 54.7768 35.7741 54.7768H32.4566V52.7705H35.7741C36.1059 52.7705 36.3823 52.8528 36.6035 53.0177C36.8523 53.1552 36.9629 53.4301 36.9629 53.7599C36.9629 54.0622 36.8523 54.3096 36.6311 54.502H36.6588Z" fill="white"/>
<path d="M50.7022 45.762C50.2598 45.4047 49.7622 45.1572 49.1817 45.0198C48.6011 44.8824 48.0205 44.7999 47.357 44.7999H41.2472V57.9926H45.0624V53.65H47.357C47.9376 53.65 48.5182 53.595 49.0987 53.4576C49.6793 53.3202 50.2046 53.1003 50.6192 52.7705C51.0616 52.4407 51.4486 51.9735 51.7251 51.4238C52.0015 50.8466 52.1397 50.1319 52.1397 49.2524C52.1397 48.4278 52.0015 47.7407 51.7527 47.191C51.5039 46.6139 51.1445 46.1741 50.7022 45.8443V45.762ZM48.214 49.7197C48.1587 49.8572 48.0482 49.9945 47.9376 50.1044C47.7994 50.2143 47.6611 50.2693 47.4952 50.3243C47.3294 50.3793 47.1082 50.4068 46.8594 50.4068H45.0624V47.9882H46.8594C47.3017 47.9882 47.6611 48.0981 47.9099 48.2905C48.1864 48.4829 48.297 48.7853 48.297 49.1975C48.297 49.3899 48.2693 49.5823 48.214 49.7197Z" fill="white"/>
<path d="M62.7005 47.9882V44.7999H52.5821V57.9651H62.7005V54.7768H56.3973V52.8255H62.0923V49.9395H56.3973V47.9882H62.7005Z" fill="white"/>
<path d="M79.8132 57.9651V44.7999H74.1734L71.63 52.1657L69.0866 44.7999H63.4745V57.9651H67.2896V50.1319L69.9436 57.9651H73.3164L75.9704 50.0771V57.9651H79.8132Z" fill="white"/>
<path d="M90.5405 47.9882V44.7999H80.6709V57.9651H90.5405V54.7768H84.4861V52.8255H89.9323V49.9395H84.4861V47.9882H90.5405Z" fill="white"/>
<path d="M99.5254 49.7197H95.0744V44.7999H91.2593V57.9651H95.0744V53.0728H99.5254V57.9651H103.341V44.7999H99.5254V49.7197Z" fill="white"/>
<path d="M104.087 44.7999V57.9651H107.902V53.0728H112.353V57.9651H116.168V44.7999H112.353V49.7197H107.902V44.7999H104.087Z" fill="white"/>
<path d="M120.646 57.6351C121.531 57.9924 122.499 58.1573 123.549 58.1573C124.6 58.1573 125.567 57.9924 126.452 57.6351C127.337 57.2778 128.083 56.783 128.719 56.1784C129.355 55.5737 129.853 54.8592 130.212 54.0347C130.571 53.2101 130.737 52.3305 130.737 51.3961C130.737 50.4616 130.571 49.5821 130.212 48.785C129.853 47.9605 129.355 47.2459 128.719 46.6138C128.083 46.0091 127.337 45.5143 126.452 45.157C125.567 44.7997 124.627 44.6073 123.549 44.6073C122.471 44.6073 121.503 44.7997 120.646 45.157C119.762 45.5143 118.988 45.9816 118.352 46.6138C117.716 47.2185 117.218 47.9605 116.887 48.785C116.527 49.6095 116.361 50.4616 116.361 51.3961C116.361 52.3305 116.527 53.2101 116.887 54.0347C117.246 54.8592 117.744 55.5737 118.352 56.1784C118.988 56.783 119.762 57.2778 120.646 57.6351ZM120.425 50.0494C120.591 49.6371 120.812 49.2797 121.116 48.9499C121.421 48.6476 121.78 48.4002 122.195 48.2078C122.609 48.0429 123.079 47.933 123.549 47.933C124.019 47.933 124.489 48.0154 124.904 48.2078C125.319 48.3727 125.678 48.6201 125.982 48.9499C126.286 49.2522 126.507 49.6371 126.673 50.0494C126.839 50.4616 126.922 50.9014 126.922 51.3961C126.922 51.8908 126.839 52.303 126.673 52.7428C126.507 53.1551 126.286 53.5124 125.982 53.8422C125.678 54.1446 125.346 54.392 124.932 54.5569C124.517 54.7218 124.075 54.8316 123.577 54.8316C123.079 54.8316 122.609 54.7493 122.195 54.5569C121.78 54.392 121.421 54.1446 121.116 53.8422C120.812 53.5399 120.591 53.1551 120.425 52.7428C120.259 52.303 120.176 51.8633 120.176 51.3961C120.176 50.9288 120.259 50.4616 120.425 50.0494Z" fill="white"/>
<path d="M130.931 57.9651H134.58L139.087 51.1215V57.9651H142.929V44.7999H139.28L134.774 51.6435V44.7999H130.931V57.9651Z" fill="white"/>
<path d="M137.87 45.0199C137.87 44.3878 137.345 43.8656 136.709 43.8656C136.073 43.8656 135.548 44.3878 135.548 45.0199C135.548 45.6521 136.073 46.1742 136.709 46.1742C137.345 46.1742 137.87 45.6521 137.87 45.0199Z" fill="white"/>
<path d="M0.691372 0.52235V37.7364H46.473V0.52235H35.7464V28.694H28.9455V0.52235H18.2189V28.694H11.4456V0.52235H0.691372Z" fill="white"/>
<path d="M49.0719 37.7364H59.7985V23.8567H62.3419L72.4603 37.7364H85.288L71.7139 19.1294L83.961 0.52235H71.7692L62.646 14.402H59.7985V0.52235H49.0719V37.7364Z" fill="white"/>
<path d="M221.554 37.7364H232.945L219.536 0.549955H202.036L190.757 37.6541V0.549955H159.324V23.8293C159.324 24.3515 159.296 24.9286 159.213 25.5333C159.13 26.138 158.992 26.6878 158.743 27.1825C158.494 27.6497 158.162 28.0345 157.72 28.3643C157.305 28.6391 156.697 28.7766 155.951 28.7766H153.822V37.764H157.361C161.812 37.764 165.046 36.7471 167.092 34.7407C169.11 32.6794 170.133 29.4362 170.133 24.9562V10.0322H179.975V37.764H202.092L203.751 31.9648H219.509L221.61 37.764L221.554 37.7364ZM206.405 22.4826L210.662 7.53097L216.053 22.4826H206.405Z" fill="white"/>
<path d="M150.587 11.7908C149.675 9.6745 148.458 7.83312 146.938 6.21153V17.6725C146.8 15.6112 146.33 13.6323 145.528 11.7908C144.533 9.48211 143.15 7.44838 141.409 5.74434C140.192 4.58999 138.81 3.57299 137.29 2.74845V17.4528C137.124 15.4464 136.654 13.5499 135.88 11.736C134.884 9.39977 133.474 7.36582 131.65 5.6343C129.88 3.90277 127.724 2.52857 125.236 1.53913C122.775 0.5222 120.038 0 117.053 0C114.067 0 111.302 0.5222 108.814 1.53913C106.326 2.52857 104.17 3.90277 102.345 5.6343C100.576 7.36582 99.1658 9.39977 98.1706 11.736C97.3688 13.6049 96.8988 15.6112 96.7606 17.7V2.74845C95.2401 3.57299 93.8578 4.56251 92.6414 5.74434C90.8721 7.47587 89.4897 9.48211 88.5221 11.7908C87.8033 13.4674 87.3334 15.2265 87.1398 17.068V6.21153C85.5917 7.83312 84.3753 9.6745 83.4906 11.7908C82.4954 14.072 81.9977 16.5182 81.9977 19.1018C81.9977 21.6853 82.4954 24.1589 83.4906 26.4676C84.4029 28.529 85.6193 30.3705 87.1398 31.992V21.1356C87.3334 22.9771 87.7757 24.7636 88.5221 26.4676C89.5174 28.7488 90.8997 30.7552 92.6414 32.4592C93.8578 33.6136 95.2401 34.6306 96.7606 35.4826V20.5584C96.8988 22.6472 97.3688 24.6537 98.1706 26.5502C99.1658 28.8589 100.548 30.8651 102.345 32.5966C104.17 34.3281 106.326 35.7024 108.814 36.7468C111.302 37.7363 114.039 38.2311 117.053 38.2311C120.066 38.2311 122.775 37.7363 125.236 36.7468C127.724 35.7299 129.88 34.3281 131.65 32.5966C133.474 30.8651 134.884 28.8314 135.88 26.5502C136.654 24.7087 137.124 22.8122 137.29 20.8058V35.4826C138.81 34.6306 140.192 33.6411 141.409 32.4592C143.178 30.7277 144.56 28.7488 145.528 26.4676C146.33 24.5712 146.8 22.5924 146.938 20.531V31.992C148.486 30.3705 149.703 28.529 150.587 26.4676C151.582 24.1589 152.08 21.6853 152.08 19.1018C152.08 16.5182 151.582 14.072 150.587 11.7908ZM125.844 22.9497C125.374 24.1315 124.711 25.1484 123.854 26.0279C123.024 26.88 122.029 27.5395 120.868 28.0343C119.707 28.529 118.407 28.7764 117.025 28.7764C115.643 28.7764 114.288 28.529 113.127 28.0343C111.938 27.5395 110.943 26.8525 110.086 26.0279C109.257 25.1484 108.621 24.104 108.151 22.9497C107.681 21.7404 107.46 20.476 107.46 19.1293C107.46 17.7826 107.681 16.5183 108.151 15.3639C108.621 14.2096 109.257 13.1652 110.086 12.2857C110.943 11.4062 111.966 10.7191 113.127 10.2243C114.316 9.72961 115.587 9.4822 116.97 9.4822C118.352 9.4822 119.651 9.72961 120.813 10.2243C122.001 10.7191 122.997 11.4062 123.854 12.2857C124.711 13.1652 125.374 14.2095 125.844 15.4188C126.314 16.6006 126.535 17.8374 126.535 19.1842C126.535 20.5309 126.314 21.7404 125.844 22.9497Z" fill="#ED131C"/>
<path d="M18.3165 128.412L11.4158 135.273L15.1497 138.985L22.0503 132.124L18.3165 128.412Z" fill="white"/>
<path d="M4.50622 128.408L0.774026 132.118L7.65785 138.989L0.774026 145.861L4.50622 149.571L11.4177 142.727L18.3292 149.598L22.0614 145.861L15.1499 138.989L11.4177 142.727L7.65785 138.989L11.4177 135.279L4.50622 128.408Z" fill="white"/>
<path d="M93.9405 82.2337C92.4477 85.6967 91.7012 89.4073 91.7012 93.3376C91.7012 94.6568 91.7842 95.921 91.95 97.1853L80.4769 65.3583H59.5767L46.5831 101.775C46.4449 98.6971 45.8643 96.1409 44.8414 94.107C43.7079 91.7708 42.1874 89.9294 40.2522 88.5826C38.3723 87.2634 36.2435 86.3564 33.8383 85.8617C31.4331 85.3944 28.9726 85.147 26.4569 85.147H16.8084V78.9082H42.9891V65.3308H0.580304V121.234H26.4569C29.1385 121.234 31.7096 120.959 34.1701 120.437C36.6305 119.86 38.7869 118.871 40.5839 117.469C40.7775 117.331 40.9433 117.194 41.1092 117.057L39.6163 121.234H56.6462L59.7702 112.522H80.3387L83.4904 121.234H100.603L95.9587 108.344C97.1474 110.24 98.5574 111.972 100.161 113.566C102.898 116.177 106.132 118.239 109.892 119.805C113.652 121.289 117.771 122.031 122.278 122.031C125.706 122.031 128.857 121.592 131.76 120.74C134.718 119.888 137.345 118.651 139.722 117.057C142.127 115.463 144.228 113.594 145.998 111.477C147.767 109.306 149.177 106.86 150.255 104.221L135.713 98.6971C135.188 100.071 134.469 101.363 133.612 102.545C132.755 103.672 131.76 104.634 130.627 105.431C129.493 106.173 128.221 106.75 126.784 107.19C125.402 107.602 123.881 107.822 122.278 107.822C120.176 107.822 118.269 107.437 116.5 106.695C114.73 105.953 113.21 104.936 111.91 103.672C110.666 102.353 109.699 100.786 108.925 99.0269C108.233 97.2129 107.874 95.2889 107.874 93.2825C107.874 91.2762 108.233 89.3797 108.925 87.6207C109.671 85.8067 110.666 84.2676 111.91 82.9758C113.182 81.6566 114.73 80.6121 116.5 79.8701C118.269 79.128 120.204 78.7433 122.278 78.7433C123.826 78.7433 125.319 78.9907 126.784 79.4579C128.221 79.8976 129.521 80.5297 130.627 81.3817C131.76 82.1787 132.755 83.1682 133.612 84.3501C134.525 85.4769 135.216 86.6863 135.713 88.0331L150.338 82.591C149.813 81.2992 149.232 80.09 148.541 78.9082H158.438V121.234H188.877L192.001 112.522H212.569L215.721 121.234H232.834L212.68 65.3308H191.779L188.185 75.4451V65.3308H144.947V73.9883C143.427 72.3118 141.74 70.8827 139.805 69.6459C137.4 68.0518 134.718 66.7875 131.76 65.8805C128.857 64.9735 125.706 64.5336 122.278 64.5336C117.771 64.5336 113.652 65.3033 109.892 66.8424C106.132 68.3266 102.898 70.3879 100.161 72.9989C97.4792 75.61 95.4058 78.6608 93.8852 82.1788L93.9405 82.2337ZM28.7238 106.832C27.6456 107.41 26.1528 107.712 24.2176 107.712H16.8361V98.7794H24.2176C25.1852 98.7794 26.0422 98.862 26.7886 99.0269C27.5903 99.1918 28.2538 99.4391 28.8067 99.8239C29.332 100.154 29.7467 100.593 30.0232 101.171C30.2996 101.693 30.4379 102.407 30.4379 103.259C30.4379 105.018 29.885 106.228 28.7515 106.86L28.7238 106.832ZM64.8847 98.3671L70.0545 83.9377L75.2519 98.3671H64.8847ZM197.087 98.3671L202.257 83.9377L207.455 98.3671H197.087ZM186.941 78.963L174.694 113.374V78.963H186.941Z" fill="#ED131C"/>
<path d="M221.997 66.76V66.1555H220.117V68.6016H221.278C221.278 68.6016 221.499 68.6016 221.61 68.5741C221.72 68.5741 221.803 68.4917 221.886 68.4367C221.969 68.3818 222.025 68.2992 222.08 68.1893C222.135 68.0794 222.163 67.9694 222.163 67.8045C222.163 67.6396 222.163 67.5023 222.08 67.4198C222.025 67.3099 221.969 67.2274 221.886 67.1724C221.803 67.1174 221.72 67.0625 221.61 67.0625C221.499 67.0625 221.389 67.035 221.278 67.035H220.836V66.76H221.997ZM221.168 67.6396C221.168 67.6396 221.251 67.6396 221.278 67.6396C221.306 67.6396 221.333 67.6396 221.361 67.6671C221.361 67.6671 221.416 67.6946 221.416 67.7221C221.416 67.7221 221.416 67.777 221.416 67.8045C221.416 67.8869 221.416 67.9419 221.333 67.9694C221.278 67.9694 221.223 67.9969 221.14 67.9969H220.808V67.6122H221.14L221.168 67.6396Z" fill="white"/>
<path d="M219.121 65.6886C218.623 66.1833 218.347 66.7604 218.347 67.475C218.347 68.1896 218.596 68.7668 219.121 69.2615C219.619 69.7562 220.254 70.0036 221.001 70.0036C221.747 70.0036 222.383 69.7562 222.881 69.2615C223.378 68.7668 223.655 68.1896 223.655 67.475C223.655 66.7604 223.406 66.1833 222.881 65.6886C222.383 65.1938 221.747 64.9464 221.001 64.9464C220.254 64.9464 219.619 65.1938 219.121 65.6886ZM222.936 67.4474C222.936 67.9696 222.743 68.4095 222.356 68.7943C221.968 69.1791 221.526 69.3714 221.001 69.3714C220.476 69.3714 220.006 69.1791 219.619 68.7943C219.232 68.4095 219.038 67.9697 219.038 67.475C219.038 66.9802 219.232 66.513 219.619 66.1282C220.006 65.7435 220.476 65.5512 221.001 65.5512C221.526 65.5512 221.996 65.7434 222.356 66.1007C222.743 66.4855 222.936 66.9254 222.936 67.4201V67.4474Z" fill="white"/>
<path d="M230.346 69.976C231.092 69.976 231.728 69.7286 232.226 69.2339C232.724 68.7392 233 68.1619 233 67.4473C233 66.7328 232.751 66.1557 232.226 65.661C231.728 65.1662 231.092 64.9188 230.346 64.9188C229.6 64.9188 228.964 65.1662 228.466 65.661C227.968 66.1557 227.692 66.7328 227.692 67.4473C227.692 68.1619 227.941 68.7392 228.466 69.2339C228.964 69.7286 229.6 69.976 230.346 69.976ZM228.964 66.1281C229.351 65.7434 229.821 65.5511 230.346 65.5511C230.871 65.5511 231.341 65.7433 231.701 66.1006C232.088 66.4854 232.281 66.9253 232.281 67.42C232.281 67.9147 232.088 68.3819 231.701 68.7667C231.314 69.1515 230.871 69.3438 230.346 69.3438C229.821 69.3438 229.351 69.1515 228.964 68.7667C228.577 68.3819 228.383 67.9421 228.383 67.4473C228.383 66.9526 228.577 66.4854 228.964 66.1006V66.1281Z" fill="white"/>
<path d="M227.195 66.4028L226.78 65.9904L226.725 65.9079L225.674 66.925L224.651 65.9079L224.098 66.4576L225.121 67.4745L224.098 68.4914L224.651 69.0136L225.674 68.0242L226.725 69.0136L227.278 68.4914L226.255 67.4745L227.278 66.4576L227.195 66.4028Z" fill="white"/>
<path d="M230.816 67.942L230.346 67.4747L230.816 67.0075V65.8807L229.24 67.4747L230.816 69.0413V67.942Z" fill="white"/>
<path d="M32.6219 151H56.7015V127.061H32.6219V151ZM36.8794 131.294H52.444V146.767H36.8794V131.294Z" fill="#ED131C"/>
<path d="M47.2467 146.328V141.078L45.2009 139.044L47.2467 137.011V131.761L39.8929 139.044L47.2467 146.328Z" fill="#ED131C"/>
<path d="M70.1654 134.702C70.6907 134.152 71.3542 133.713 72.1006 133.383C72.847 133.053 73.6488 132.888 74.5335 132.888C75.197 132.888 75.8328 132.998 76.441 133.191C77.0492 133.383 77.6021 133.658 78.0721 134.015C78.5698 134.372 79.0121 134.757 79.3715 135.252C79.7309 135.747 80.035 136.269 80.2561 136.846L85.7853 134.757C85.343 133.685 84.7901 132.696 84.0713 131.816C83.3525 130.937 82.5231 130.167 81.5555 129.535C80.5879 128.875 79.5374 128.381 78.3486 128.023C77.1598 127.639 75.9157 127.474 74.5335 127.474C72.7365 127.474 71.0777 127.776 69.5848 128.408C68.0643 129.013 66.765 129.865 65.6868 130.909C64.5809 131.954 63.7515 133.191 63.171 134.592C62.5904 135.994 62.2863 137.505 62.2863 139.1C62.2863 140.694 62.5904 142.178 63.171 143.607C63.7792 145.009 64.6086 146.246 65.6868 147.29C66.765 148.335 68.0919 149.159 69.5848 149.791C71.1053 150.396 72.7365 150.726 74.5335 150.726C75.8881 150.726 77.1598 150.561 78.3486 150.203C79.5374 149.846 80.5879 149.379 81.5555 148.747C82.5231 148.115 83.3249 147.345 84.0436 146.465C84.7624 145.586 85.343 144.597 85.7577 143.525L80.2285 141.436C80.0073 142.041 79.7309 142.59 79.3439 143.057C78.9845 143.525 78.5421 143.937 78.0721 144.267C77.5745 144.597 77.0492 144.871 76.441 145.036C75.8328 145.201 75.197 145.311 74.5335 145.311C73.6488 145.311 72.8471 145.146 72.073 144.816C71.3265 144.487 70.663 144.047 70.1378 143.497C69.6125 142.948 69.1701 142.288 68.866 141.546C68.5619 140.804 68.4237 139.979 68.4237 139.127C68.4237 138.275 68.5619 137.478 68.866 136.708C69.1701 135.966 69.5848 135.307 70.1378 134.757L70.1654 134.702Z" fill="white"/>
<path d="M107.597 150.341V127.803H101.681L93.5534 140.144V127.803H87.3883V150.341H93.3322L101.432 138.028V150.341H107.597Z" fill="white"/>
<path d="M131.042 150.341V127.803H124.905V136.406H116.804V127.803H110.639V150.341H116.804V141.793H124.905V150.341H131.042Z" fill="white"/>
<path d="M151.029 133.025V127.803H134.055V150.341H151.029V145.118H140.22V141.463H149.951V136.681H140.22V133.025H151.029Z" fill="white"/>
<path d="M169.801 129.562C169.054 128.958 168.197 128.518 167.202 128.243C166.207 127.968 165.156 127.831 163.995 127.831H153.738V150.34H159.904V142.837H163.995C165.018 142.837 166.013 142.727 166.981 142.507C167.949 142.288 168.833 141.875 169.607 141.298C170.381 140.721 170.99 139.951 171.46 138.989C171.929 138.027 172.178 136.791 172.178 135.334C172.178 134.015 171.957 132.86 171.542 131.898C171.1 130.936 170.52 130.167 169.801 129.562ZM165.847 136.296C165.709 136.598 165.543 136.845 165.322 137.038C165.073 137.258 164.797 137.395 164.437 137.505C164.078 137.615 163.691 137.67 163.193 137.67H159.876V133.025H163.193C164.078 133.025 164.769 133.218 165.267 133.602C165.764 133.987 166.013 134.537 166.013 135.334C166.013 135.691 165.958 136.021 165.847 136.323V136.296Z" fill="white"/>
<path d="M173.948 150.341H180.113V133.025H189.236V127.803H173.948V150.341Z" fill="white"/>
<path d="M211.546 150.341V127.803H205.63L197.502 140.144V127.803H191.337V150.341H197.281L205.409 138.028V150.341H211.546Z" fill="white"/>
<path d="M232.861 150.341V127.803H222.466C221.333 127.803 220.255 127.968 219.259 128.243C218.264 128.518 217.407 128.958 216.661 129.562C215.914 130.167 215.334 130.936 214.919 131.898C214.477 132.86 214.283 133.987 214.283 135.334C214.283 136.818 214.532 138.027 215.002 138.989C215.472 139.951 216.108 140.721 216.854 141.298C217.407 141.711 217.988 142.013 218.651 142.26L213.758 150.341H220.586L225.12 142.865H226.724V150.341H232.889H232.861ZM223.406 137.67C222.881 137.67 222.439 137.615 222.079 137.505C221.692 137.395 221.388 137.23 221.139 137.038C220.89 136.818 220.725 136.598 220.614 136.296C220.503 135.994 220.448 135.691 220.448 135.306C220.448 134.537 220.697 133.96 221.195 133.575C221.692 133.19 222.439 132.998 223.406 132.998H226.724V137.643H223.434L223.406 137.67Z" fill="white"/>
<path d="M167.009 57.9376V44.7999H161.342L158.881 52.1384L156.448 44.7999H150.781V57.9376H154.624V50.1594L157.25 57.9376H160.512L163.139 50.1594V57.9376H167.009Z" fill="white"/>
<path d="M170.216 54.7494H169.11V57.9102H170.243C173.008 57.9102 174.086 57.4704 175.413 55.1067L181.219 44.7725H176.906L174.279 49.7747L171.349 44.7725H167.092L172.317 53.5127L172.261 53.6226C171.736 54.667 171.183 54.7221 170.216 54.7221V54.7494Z" fill="white"/>
<path d="M185.725 54.7768C184.675 54.7768 183.652 54.337 182.712 53.5399L180.307 55.9037C181.938 57.5253 183.956 58.13 185.698 58.13C188.407 58.13 191.033 57.0856 191.033 54.1997C191.033 53.2652 190.757 51.8635 189.153 51.094C190.038 50.4618 190.563 49.5273 190.563 48.2905C190.563 46.0093 188.601 44.5801 185.698 44.5801C183.928 44.5801 181.966 45.2122 180.362 46.5864L182.74 48.9776C183.458 48.4279 184.564 47.9332 185.504 47.9332C186.361 47.9332 186.831 48.318 186.831 48.8677C186.831 49.5273 186.361 49.8296 185.698 49.8296H183.68V52.7154H185.919C186.748 52.7154 187.218 53.0452 187.218 53.7048C187.218 54.337 186.721 54.7493 185.725 54.7493V54.7768Z" fill="white"/>
<path d="M191.697 44.7999V57.9376H197.806C200.267 57.9376 202.534 56.8656 202.534 53.54C202.534 50.0219 200.073 49.1425 197.806 49.1425H195.54V44.7999H191.697ZM197.226 52.3581C198.138 52.3581 198.691 52.7704 198.691 53.5675C198.691 54.3645 198.083 54.7493 197.226 54.7493H195.54V52.3581H197.226Z" fill="white"/>
<path d="M207.372 44.7999H203.529V57.9376H207.372V44.7999Z" fill="white"/>
<path d="M228.991 57.9376H232.833V44.7999H229.184L224.705 51.5612V44.7999H220.863V57.6078L216.301 51.3687L220.614 44.7999H216.301L213.066 49.6922H212.099V44.7999H208.256V57.9376H212.099V53.0453H212.984L216.522 57.9376H224.54L228.991 51.1488V57.9376Z" fill="white"/>
</svg>
