<svg width="25" height="17" viewBox="0 0 25 17" fill="none" xmlns="http://www.w3.org/2000/svg">
<path fill-rule="evenodd" clip-rule="evenodd" d="M0.0244867 14.6646L0 16.8779L8.83377 16.8803L8.83986 14.6741L7.55043 14.6601C7.57429 14.3739 8.02951 13.1847 8.14877 12.8652C8.36522 12.2859 8.55744 11.6087 8.78695 11.0657C9.01292 11.2154 9.60161 12.3111 9.73509 12.5295C10.0542 13.0522 12.3303 16.844 12.4909 17C12.8384 16.7191 15.6712 11.6597 16.185 11.049C16.2898 11.1888 17.4256 14.4481 17.4356 14.6554L16.1878 14.6659C16.1397 14.9557 16.1273 16.66 16.202 16.8897L24.9768 16.8926L25 14.6779L23.2913 14.6611C22.3255 12.1922 21.2926 9.78319 20.3653 7.32808C20.2277 6.96383 17.5639 0.200435 17.4317 0.0117457C17.2903 0.123646 13.6196 6.60338 12.8462 7.93848C12.7868 8.04091 12.7506 8.08827 12.6923 8.19651C12.5894 8.38747 12.646 8.36701 12.4909 8.46262C12.3823 8.37257 7.99069 0.744149 7.59471 0C7.40503 0.175302 6.21609 3.36244 5.98924 3.91916C5.45992 5.21776 4.86412 6.6443 4.40724 7.90172L2.82055 11.8866C2.55589 12.5269 2.30962 13.1872 2.03342 13.8604C1.59963 14.9176 2.06958 14.65 0.0244867 14.6646Z" fill="white"/>
</svg>
