<svg width="520" height="383" viewBox="0 0 520 383" fill="none" xmlns="http://www.w3.org/2000/svg">
<path d="M-158 376.756C-158 363.544 -145.564 353.863 -132.756 357.104C-126.41 358.763 -124.3 363.757 -128.964 368.368C-132.162 371.53 -135.546 374.82 -136.569 377.18C-136.646 377.358 -136.662 377.55 -136.634 377.743C-136.578 378.122 -136.335 378.441 -135.969 378.556C-133.359 379.376 -123.763 381.65 -121.859 382.152C-108.675 385.579 -95.5318 389.165 -82.4321 392.907C-51.3923 401.81 -20.6357 411.69 9.79333 422.534C16.5759 424.957 23.9349 427.573 31.1493 430.264C40.0159 433.571 49.7934 431.414 56.9768 425.253C58.0077 424.369 59.0439 423.522 60.0824 422.731C61.2841 421.814 63.5979 422.781 64.8772 423.124C72.7674 426.203 80.5478 429.687 88.3406 433.017C90.6867 434.02 93.4493 435.416 95.9466 436.339C97.037 436.742 98.1308 437.199 99.1696 437.721C100.138 438.207 101.144 438.57 102.119 439.042C111.547 443.605 121.305 447.732 130.728 452.371C160.189 466.865 191.792 482.585 220.23 499.684C223.982 501.94 224.267 507.208 220.873 509.974C217.486 512.733 218.093 517.929 221.861 520.14C225.749 522.422 229.628 524.771 233.43 527.022C237.298 529.306 235.874 534 231.382 534H196.44C195.162 534 194.596 532.497 195.291 531.425C195.522 531.069 195.553 530.592 195.242 530.304C190.947 526.32 157.079 512.249 147.417 507.278C146.141 506.622 144.879 505.979 143.56 505.416C141.275 504.441 138.605 503.231 136.397 502.185C135.287 501.659 134.139 501.219 132.999 500.763C131.226 500.053 129.455 499.157 127.535 498.378C125.956 497.738 124.377 497.086 122.846 496.338C122.005 495.927 121.106 495.503 120.244 495.099C118.565 494.312 116.799 493.716 115.061 493.072C112.747 492.216 109.985 490.99 108.305 490.291C102.635 487.908 96.9462 485.571 91.2395 483.28C72.412 475.808 50.395 467.331 31.1598 461.015C29.8023 460.471 28.4339 459.953 27.0558 459.464C25.0495 458.751 22.826 458.399 21.1259 459.681C17.1815 462.655 12.1149 470.044 8.8595 471.808C6.04724 473.333 -10.9242 466.954 -14.752 465.79C-42.9343 457.3 -71.3286 449.548 -99.9065 442.537C-109.9 440.02 -124.55 437.243 -134.268 434.449C-135.579 434.073 -136.914 433.789 -138.254 433.532C-139.819 433.231 -141.416 432.837 -142.979 432.437C-144.699 431.996 -145.843 431.885 -147.601 431.632C-153.666 430.76 -158 425.022 -158 418.894V376.756Z" fill="#FD4950"/>
<path d="M-158 174.412C-158 174.177 -157.762 174.015 -157.543 174.102C-152.924 175.908 -143.454 178.164 -138.386 179.566L-103.893 189.373C-75.4972 197.529 -47.4874 206.998 -19.9519 217.751C-10.7861 221.333 -1.52206 224.758 7.44633 228.805C8.39471 229.233 9.91466 229.687 11.4696 230.216C15.1374 231.462 16.8474 233.361 13.9021 235.877C7.71198 241.165 7.50134 252.03 15.0472 255.086C64.3441 275.052 112.565 297.629 159.51 322.724C167.779 327.144 177.651 326.151 185.477 320.987C185.754 320.805 186.026 320.628 186.292 320.458C189.045 318.697 192.312 318.716 195.184 320.275C199.519 322.63 205.041 326.246 207.779 327.865C245.142 349.92 281.305 373.984 316.112 399.956C322.403 404.625 328.644 409.367 334.826 414.179C335.53 414.728 336.374 415.378 337.274 416.078C340.915 418.906 340.254 424.283 336.355 426.744C332.59 429.121 332.533 434.263 336.024 437.026C344.456 443.698 353.092 450.419 361.079 457.351C361.339 457.577 361.614 457.784 361.903 457.971C362.273 458.211 362.62 458.483 362.942 458.785C369.625 465.04 377.738 471.507 384.669 477.735C397.992 489.676 410.955 502.019 423.544 514.747C431.436 522.608 426.378 534 415.24 534H407.437C402.637 534 398.055 532.042 394.443 528.88C388.546 523.72 381.039 517.862 376.193 513.972C359.271 500.247 341.888 487.113 324.074 474.594C316.867 469.495 309.116 464.458 301.762 459.37C298.22 456.918 298.167 451.817 301.726 449.39C305.355 446.915 305.532 441.661 301.926 439.154C292.208 432.397 279.948 424.773 271.341 419.36C244.899 402.685 217.906 386.922 190.406 372.098C181.29 367.216 172.127 362.423 162.918 357.72C161.447 356.968 159.807 356.159 158.111 355.318C151.377 351.979 142.929 352.817 136.979 357.41C132.634 360.764 127.122 361.271 122.155 358.935C119.035 357.468 115.872 355.907 113.275 354.718C102.505 349.808 91.7019 344.973 80.8658 340.214C50.0383 327.014 18.8534 314.681 -12.6521 303.229C-20.3276 300.438 -28.0192 297.692 -35.727 294.993C-36.1133 294.858 -36.5158 294.715 -36.9316 294.566C-42.2875 292.652 -44.1226 285.386 -39.8748 281.604C-35.9434 278.104 -37.0375 271.782 -41.9693 269.941C-68.2358 260.139 -96.9135 252.471 -123.44 245.08C-126.775 244.151 -132.136 242.633 -137.767 241.108C-149.292 237.988 -158 227.421 -158 215.481V174.412Z" fill="#FD4950"/>
<path d="M792 174.538C792 183.526 783.695 185.724 779.22 177.929C768.795 159.582 757.935 141.49 746.656 123.667C743.88 119.285 739.118 111.445 735.249 105.885C733.23 102.984 730.24 100.956 726.727 101.346C721.067 101.974 713.128 104.128 709.651 103.927C708.266 103.847 706.848 101.724 705.994 100.492C696.681 87.1352 687.367 73.9551 677.714 60.8435C672.425 53.6957 667.084 46.5877 661.691 39.5204C649.45 23.478 660.727 0 680.906 0H688.003C696.107 0 703.647 4.10238 708.259 10.7672C716.266 22.3402 724.714 33.8797 732.13 45.7143C733.642 48.1272 738.403 55.0172 740.764 58.9825C741.593 60.3738 742.396 61.7852 743.332 63.1063L745.254 65.8182C748.949 72.103 753.112 78.2487 756.703 84.4677C757.68 86.0961 759.803 90.0816 761.819 92.9561C763.547 95.4195 766.507 96.0094 769.491 95.6208C775.135 94.8859 782.974 93.7782 786.854 93.8516C789.645 93.9052 791.999 94.8597 791.999 92.0674V0L792 174.538Z" fill="#FD4950"/>
<path d="M428.285 0.710995C429.342 0.205265 430.277 0 431.45 0H487.192C493.534 0 499.625 2.50347 504.091 7.00614C518.858 21.8936 533.301 37.1045 547.413 52.6281C554.446 60.3189 561.599 68.8734 568.582 76.3515C569.441 77.3491 572.372 80.6155 572.969 81.4946C580.413 90.0767 587.715 98.7803 594.88 107.603C598.849 112.493 604.306 119.445 608.257 123.774C611.21 127.013 626.781 119.364 631.002 120.121C632.043 120.308 633.987 122.923 634.8 123.974C646.291 138.795 656.769 154.43 667.808 169.558C668.718 171.019 670.182 173.031 671.338 174.807C672.317 176.312 673.278 177.835 674.343 179.281C678.524 184.962 683.7 193.339 687.21 198.76C698.414 216.043 709.133 233.644 719.351 251.541C721.729 255.725 724.726 261.469 727.583 266.652C729.806 270.685 727.583 275.929 723.058 276.789C718.103 277.731 715.22 283.84 717.626 288.274C720.91 294.328 724.375 301.25 726.45 305.32C746.878 345.402 768.023 393.184 780.449 436.984C781.171 439.531 783.618 441.19 786.249 440.9C789.351 440.559 792 443.011 792 446.132V482.491C792 487.671 788.771 488.177 786.999 483.309C784.018 475.119 780.522 463.037 776.767 453.014C774.495 446.948 767.981 443.955 761.584 444.975C758.061 445.537 754.961 444.146 753.433 440.922C752.145 438.204 750.954 435.08 750.326 433.557C731.869 388.942 708.155 347.652 683.005 306.678C681.463 304.473 679.937 302.031 678.431 299.767C674.913 293.631 679.222 286.124 685.99 284.067C688.54 283.292 688.515 281.442 687.262 279.089C684.078 273.105 676.588 262.728 674.774 260.168C673.111 258.07 670.524 253.98 668.753 251.534C664.449 244.242 656.272 233.842 651.208 226.36C649.616 224.387 648.061 222.384 646.548 220.349C645.808 219.356 645.144 218.305 644.424 217.297C643.811 216.438 643.103 215.501 642.741 215.008C642.112 214.248 641.765 213.298 641.118 212.554C637.308 208.178 630.706 199.039 627.432 194.807C617.123 181.426 606.549 168.257 595.718 155.308C591.876 150.659 585.948 143.227 581.066 137.929C578.879 135.556 575.965 134.074 572.831 134.842C567.342 136.188 559.39 139.447 556.673 139.543C554.268 139.628 543.312 126.539 541.094 124.155C531.71 114.004 522.193 103.977 512.548 94.079C508.348 89.7651 502.999 84.0034 498.616 80.0271L491.403 72.8374C490.455 71.8918 489.432 71.0191 488.467 70.0906C486.994 68.6738 485.113 66.6658 484.189 65.7829C475.061 57.0787 466.134 48.0038 456.753 39.5618C455.312 38.2652 453.968 36.8414 452.508 35.5672C452.111 35.2214 451.739 34.9044 451.464 34.6625C443.814 27.1624 434.17 19.2748 425.907 11.7161C422.319 8.43353 423.897 2.80877 428.285 0.710995Z" fill="#FD4950"/>
<path d="M-158 44.695C-158 28.6348 -142.531 17.1072 -127.221 21.9576C-107.287 28.273 -87.4556 34.9187 -67.7359 41.892C-57.3394 45.4783 -46.3064 50.2031 -35.7652 53.7019C-33.8221 54.3465 -32.6805 54.7234 -31.0023 53.5955C-27.86 51.4834 -24.702 49.2561 -21.5561 46.9962C-14.2315 41.7345 -4.55673 40.881 3.8058 44.2581C10.4036 46.9225 17.4581 49.6349 22.172 51.6409C44.0609 60.9166 65.782 70.591 87.3243 80.6595C107.798 90.2443 128.438 102.164 148.356 112.973C150.994 114.405 153.67 115.95 156.353 117.516C162.63 121.177 161.705 130.593 155.612 134.552C151.577 137.174 152.957 140.636 157.089 143.102C169.285 150.381 193.277 164.198 197.01 166.435C232.032 187.414 266.147 209.895 299.263 233.816C306.478 239.028 315.764 239.534 323.684 235.473C324.464 235.074 325.215 234.7 325.918 234.367C328.658 233.069 331.654 233.465 334.148 235.189C339.452 238.856 347.346 245.437 350.691 248.11C387.713 277.52 422.98 309.117 456.303 342.735C457.562 344.004 461.576 347.896 464.557 351.132C466.934 353.71 467.033 356.499 463.891 358.056C458.258 360.847 456.086 368.092 460.424 372.642C466.557 379.074 472.681 385.473 478.711 392.097C495.999 411.059 512.469 430.764 528.081 451.156C536.329 461.975 544.295 473.015 551.958 484.264C554.399 487.834 556.815 491.558 559.245 495.222C561.94 499.282 567.282 500.611 571.814 498.821C575.929 497.195 580.65 498.484 582.961 502.258C587.384 509.483 592.127 518.891 595.651 524.781C597.853 528.472 594.512 534 590.214 534H579.664C575.729 534 572.052 531.803 569.763 528.603C568.924 527.43 568.105 526.312 567.475 525.41C566.233 523.633 564.958 521.872 563.67 520.118C557.761 512.069 545.19 518.66 538.349 511.387C534.679 507.476 530.959 502.538 527.547 498.32C521.803 491.296 515.957 484.361 510.014 477.509C487.56 451.906 463.779 427.522 438.771 404.463C435.193 401.147 427.864 394.266 421.714 388.852C418.126 385.693 418.5 379.914 422.767 377.758C426.615 375.813 427.46 371.009 424.245 368.135C419.159 363.589 412.558 357.995 410.113 355.937C387.607 337.016 362.857 315.932 338.906 298.89C337.82 298.117 336.804 297.249 335.732 296.457C334.96 295.885 334.101 295.312 333.342 294.807C332.8 294.445 332.332 293.988 331.808 293.602C317.63 283.05 303.113 272.986 288.587 262.925C286.97 261.804 283.822 259.356 281.65 259.484C278.502 259.668 265.494 269.95 263.641 269.127C260.307 267.648 240.903 255.158 237.346 252.947C206.826 234.113 175.741 216.233 144.132 199.333C133.712 193.852 123.249 188.456 112.743 183.146C111.494 182.518 109.033 181.328 106.385 180.016C100.023 176.865 99.15 171.579 105.146 167.776C105.283 167.689 105.421 167.602 105.558 167.514C112.072 163.376 110.37 157.657 103.541 154.063C103.213 153.89 102.886 153.718 102.561 153.545C79.7267 141.4 56.5697 131.272 32.7687 121.22C3.78387 108.998 -25.4724 97.4434 -54.977 86.5658C-63.0558 83.5873 -72.1408 85.1944 -78.9087 90.5173C-80.1383 91.4844 -81.3708 92.4473 -82.5501 93.3604C-87.4267 97.1363 -93.5702 98.0851 -99.4533 96.234C-111.745 92.3665 -133.03 85.5072 -146.273 81.1305C-153.671 78.6854 -158 72.4641 -158 64.6723V44.695Z" fill="#FD4950"/>
<path d="M184.291 9.4974C179.431 6.80589 181.321 0 186.877 0H272.747C277.816 0 282.744 1.58502 286.858 4.54739C298.25 12.7507 320.464 28.81 328.891 35.857C331.22 37.8046 332.708 39.2367 330.077 40.7534C322.202 45.2946 319.236 56.1644 326.476 61.6616C341.878 73.3555 357.709 86.6174 371.939 97.8555C373.092 98.8586 374.541 100.158 375.966 101.3C377.63 102.633 379.336 103.937 380.925 105.359C382.36 106.645 384.145 108.191 385.549 109.335C386.889 110.426 388.286 111.459 389.596 112.585C391.78 114.463 394.083 116.434 396.056 118.304C400.879 121.962 406.07 126.694 410.582 130.795C424.71 143.625 439.613 156.463 453.114 169.939C455.952 172.679 460.339 172.702 464.012 171.263C465.167 170.81 466.409 170.339 467.666 169.87C473.986 167.509 481.352 169.075 486.044 173.923C516.935 205.85 546.52 238.257 573.89 273.522C579.348 280.554 586.831 289.89 592.974 298.216C596.502 302.997 595.889 308.033 590.151 309.574C584.278 311.151 583.065 316.489 586.652 321.399C588.28 323.627 589.894 325.781 591.032 327.368C597.148 335.879 603.153 344.469 609.045 353.136C628.373 381.801 645.818 411.714 661.272 442.679C662.557 445.29 666.545 453.917 669.394 459.482C670.959 462.537 673.156 464.306 676.514 463.593C683.055 462.204 690.432 465.215 693.073 471.358C693.833 473.124 694.577 474.871 695.25 476.562C700.317 489.093 704.916 501.809 709.038 514.684C709.648 516.557 710.456 519.047 711.282 521.694C713.246 527.987 708.522 534 701.929 534C697.499 534 693.468 531.224 691.651 527.183C690.683 525.031 689.722 522.942 689.142 521.628C683.536 508.988 677.506 496.544 671.063 484.319C668.914 480.206 666.504 475.551 664.076 471.357C663.24 469.914 662.209 468.33 660.543 468.264C656.549 468.105 650.136 472.687 646.958 471.691C644.532 470.933 641.381 464.374 640.066 462.167C636.72 456.513 633.307 450.901 629.824 445.331C612.45 417.481 590.87 388.103 570.448 362.609C564.668 355.403 558.784 348.282 552.796 341.248C552.094 340.423 549.912 337.969 547.636 335.295C543.205 330.089 544.736 324.732 551.222 322.573C553.604 321.78 555.941 320.992 557.88 320.071C558.097 319.966 558.141 319.676 557.966 319.51C554.693 316.418 548.524 308.875 545.427 305.347C537.403 296.149 529.234 287.082 520.92 278.148C500.253 256.048 478.877 234.64 456.817 213.96C450.072 207.647 442.782 200.813 435.575 194.375C430.091 189.476 422.061 188.429 415.356 191.449C409.443 194.113 403.227 192.565 398.242 188.416C387.941 179.843 377.772 171.304 367.204 162.854C343.518 143.948 319.318 125.706 294.637 108.148C285.418 101.56 273.91 93.2577 263.326 86.1476C258.116 82.6479 258.11 75.6025 263.763 72.8761C265.29 72.1394 266.818 71.4006 268.276 70.6547C271.367 69.0727 271.486 65.0714 268.633 63.0907C241.217 44.0497 213.485 25.6651 184.291 9.4974Z" fill="#FD4950"/>
</svg>
