<svg width="114" height="46" viewBox="0 0 114 46" fill="none" xmlns="http://www.w3.org/2000/svg">
<g opacity="0.2" filter="url(#filter0_d_1618_7773)">
<path d="M14.0859 39.2745C10.7547 36.8687 8.11733 34.1162 6.17387 31.0171C4.03544 27.5546 2.96607 23.8821 2.96606 19.9998C2.96606 16.1175 4.03543 12.4713 6.17387 9.06124C8.11735 5.91436 10.7547 3.13581 14.0859 0.725586V39.2745Z" fill="#BFBFBF"/>
</g>
<g opacity="0.6" filter="url(#filter1_d_1618_7773)">
<path d="M25.7266 36.3087C22.8395 34.273 20.5538 31.944 18.8694 29.3217C17.0161 26.3919 16.0893 23.2844 16.0893 19.9994C16.0893 16.7144 17.0161 13.6291 18.8694 10.7437C20.5538 8.08093 22.8395 5.72985 25.7266 3.69043V36.3087Z" fill="#BFBFBF"/>
</g>
<path d="M49.6875 28.105C50.7542 28.1048 51.6742 27.9045 52.4475 27.5044C53.2208 27.0775 53.8474 26.4774 54.3274 25.7039C54.834 24.9305 55.2073 23.9837 55.4473 22.8636C55.7139 21.7169 55.8472 20.4369 55.8471 19.0235C55.8471 17.6102 55.7137 16.3436 55.447 15.2236C55.2069 14.077 54.8336 13.1171 54.3269 12.3439C53.8468 11.5707 53.2201 10.9842 52.4468 10.5843C51.6734 10.1579 50.7534 9.94475 49.6868 9.94501C48.6201 9.94526 47.6868 10.1588 46.8868 10.5857C46.1135 10.9859 45.4735 11.5727 44.9669 12.3461C44.4602 13.1196 44.0869 14.0797 43.847 15.2264C43.607 16.3464 43.4871 17.6131 43.4871 19.0265C43.4872 20.4398 43.6072 21.7198 43.8473 22.8664C44.0873 23.9863 44.4607 24.9329 44.9674 25.7061C45.4741 26.4793 46.1141 27.0792 46.8875 27.5057C47.6875 27.9055 48.6208 28.1053 49.6875 28.105ZM49.6877 33.425C47.7677 33.4255 46.0477 33.0792 44.5277 32.3862C43.0343 31.6666 41.7809 30.6802 40.7676 29.4271C39.7542 28.1474 38.9808 26.6275 38.4474 24.8677C37.9406 23.1078 37.6872 21.1612 37.6871 19.0279C37.687 16.8945 37.9403 14.9478 38.4469 13.1877C38.9802 11.4275 39.7534 9.9207 40.7667 8.66712C41.78 7.38688 43.0333 6.39992 44.5266 5.70623C46.0466 4.98587 47.7665 4.62546 49.6865 4.625C51.6332 4.62454 53.3399 4.98414 54.8066 5.70379C56.3 6.39677 57.5533 7.38314 58.5667 8.6629C59.5801 9.91599 60.3402 11.4225 60.8469 13.1824C61.3803 14.9422 61.647 16.8888 61.6471 19.0222C61.6472 21.1555 61.3806 23.1022 60.8474 24.8624C60.3408 26.6225 59.5808 28.1427 58.5676 29.4229C57.5543 30.6765 56.301 31.6634 54.8077 32.3838C53.341 33.0775 51.6344 33.4245 49.6877 33.425ZM72.2172 5.01966L72.2183 33.0197L66.4183 33.021L66.4175 13.261L63.1775 13.2618L63.1773 8.2218C64.1907 8.22156 65.0173 7.94137 65.6573 7.38121C66.3239 6.82105 66.6572 6.03431 66.6572 5.02098L72.2172 5.01966Z" fill="#1C1C1C"/>
<g opacity="0.6" filter="url(#filter2_d_1618_7773)">
<path d="M88.7266 36.3087C91.3915 34.273 93.5014 31.944 95.0562 29.3217C96.767 26.3919 97.6225 23.2844 97.6225 19.9994C97.6225 16.7144 96.767 13.6291 95.0562 10.7437C93.5014 8.08093 91.3916 5.72985 88.7266 3.69043V36.3087Z" fill="#BFBFBF"/>
</g>
<g opacity="0.2" filter="url(#filter3_d_1618_7773)">
<path d="M99.625 39.2745C102.956 36.8687 105.594 34.1162 107.537 31.0171C109.675 27.5546 110.745 23.8821 110.745 19.9998C110.745 16.1175 109.676 12.4713 107.537 9.06124C105.594 5.91436 102.956 3.13581 99.625 0.725586V39.2745Z" fill="#BFBFBF"/>
</g>
<defs>
<filter id="filter0_d_1618_7773" x="0.00345039" y="0.725586" width="17.0478" height="44.4794" filterUnits="userSpaceOnUse" color-interpolation-filters="sRGB">
<feFlood flood-opacity="0" result="BackgroundImageFix"/>
<feColorMatrix in="SourceAlpha" type="matrix" values="0 0 0 0 0 0 0 0 0 0 0 0 0 0 0 0 0 0 127 0" result="hardAlpha"/>
<feOffset dy="2.9653"/>
<feGaussianBlur stdDeviation="1.48265"/>
<feComposite in2="hardAlpha" operator="out"/>
<feColorMatrix type="matrix" values="0 0 0 0 0.864915 0 0 0 0 0 0 0 0 0 0 0 0 0 0.25 0"/>
<feBlend mode="normal" in2="BackgroundImageFix" result="effect1_dropShadow_1618_7773"/>
<feBlend mode="normal" in="SourceGraphic" in2="effect1_dropShadow_1618_7773" result="shape"/>
</filter>
<filter id="filter1_d_1618_7773" x="13.1206" y="3.69043" width="15.5712" height="38.5488" filterUnits="userSpaceOnUse" color-interpolation-filters="sRGB">
<feFlood flood-opacity="0" result="BackgroundImageFix"/>
<feColorMatrix in="SourceAlpha" type="matrix" values="0 0 0 0 0 0 0 0 0 0 0 0 0 0 0 0 0 0 127 0" result="hardAlpha"/>
<feOffset dy="2.9653"/>
<feGaussianBlur stdDeviation="1.48265"/>
<feComposite in2="hardAlpha" operator="out"/>
<feColorMatrix type="matrix" values="0 0 0 0 0.864915 0 0 0 0 0 0 0 0 0 0 0 0 0 0.25 0"/>
<feBlend mode="normal" in2="BackgroundImageFix" result="effect1_dropShadow_1618_7773"/>
<feBlend mode="normal" in="SourceGraphic" in2="effect1_dropShadow_1618_7773" result="shape"/>
</filter>
<filter id="filter2_d_1618_7773" x="85.7613" y="3.69043" width="14.829" height="38.5488" filterUnits="userSpaceOnUse" color-interpolation-filters="sRGB">
<feFlood flood-opacity="0" result="BackgroundImageFix"/>
<feColorMatrix in="SourceAlpha" type="matrix" values="0 0 0 0 0 0 0 0 0 0 0 0 0 0 0 0 0 0 127 0" result="hardAlpha"/>
<feOffset dy="2.9653"/>
<feGaussianBlur stdDeviation="1.48265"/>
<feComposite in2="hardAlpha" operator="out"/>
<feColorMatrix type="matrix" values="0 0 0 0 0.864915 0 0 0 0 0 0 0 0 0 0 0 0 0 0.25 0"/>
<feBlend mode="normal" in2="BackgroundImageFix" result="effect1_dropShadow_1618_7773"/>
<feBlend mode="normal" in="SourceGraphic" in2="effect1_dropShadow_1618_7773" result="shape"/>
</filter>
<filter id="filter3_d_1618_7773" x="96.6597" y="0.725586" width="17.0478" height="44.4794" filterUnits="userSpaceOnUse" color-interpolation-filters="sRGB">
<feFlood flood-opacity="0" result="BackgroundImageFix"/>
<feColorMatrix in="SourceAlpha" type="matrix" values="0 0 0 0 0 0 0 0 0 0 0 0 0 0 0 0 0 0 127 0" result="hardAlpha"/>
<feOffset dy="2.9653"/>
<feGaussianBlur stdDeviation="1.48265"/>
<feComposite in2="hardAlpha" operator="out"/>
<feColorMatrix type="matrix" values="0 0 0 0 0.864915 0 0 0 0 0 0 0 0 0 0 0 0 0 0.25 0"/>
<feBlend mode="normal" in2="BackgroundImageFix" result="effect1_dropShadow_1618_7773"/>
<feBlend mode="normal" in="SourceGraphic" in2="effect1_dropShadow_1618_7773" result="shape"/>
</filter>
</defs>
</svg>
