<svg width="40" height="40" viewBox="0 0 40 40" fill="none" xmlns="http://www.w3.org/2000/svg">
<rect width="40" height="40" rx="20" fill="#CACACB"/>
<path fill-rule="evenodd" clip-rule="evenodd" d="M13.34 29.0474C12.718 29.0474 12.1855 28.8259 11.7426 28.383C11.2996 27.94 11.0781 27.4075 11.0781 26.7855V25.7143C11.0781 25.3198 11.3979 25 11.7924 25H13.7567C14.1512 25 14.471 24.6802 14.471 24.2857V20.848V18.579C14.5456 18.5837 14.621 18.5861 14.6972 18.5861C15.1307 18.5861 15.5218 18.5201 15.8705 18.3882C16.2192 18.2562 16.5632 18.0206 16.9025 17.6813C17.0275 17.5564 17.0275 17.3539 16.9025 17.2289L15.5454 15.8718C15.2118 15.5382 14.8537 15.2555 14.471 15.0238V12.5072V11.6664C14.471 11.2719 14.7908 10.9521 15.1853 10.9521H27.3281C27.7226 10.9521 28.0424 11.2719 28.0424 11.6664V25.6545C28.0424 26.597 27.7126 27.3981 27.0528 28.0578C26.3931 28.7175 25.592 29.0474 24.6496 29.0474H13.34ZM23.5186 24.1069C23.5186 23.7124 23.1988 23.3926 22.8043 23.3926H17.4472C17.0527 23.3926 16.7329 23.0728 16.7329 22.6783V20.9575C16.7329 20.6547 16.9273 20.3906 17.196 20.2508C17.3515 20.1698 17.5035 20.0767 17.6518 19.9715C17.9439 19.7642 18.222 19.5285 18.4859 19.2646C18.6108 19.1397 18.8133 19.1397 18.9382 19.2646L21.7261 22.0525C21.86 22.1864 22.0417 22.2617 22.2311 22.2617H22.8043C23.1988 22.2617 23.5186 21.9419 23.5186 21.5474V20.9742C23.5186 20.7848 23.4433 20.6031 23.3094 20.4691L16.8734 14.0332C16.7834 13.9432 16.7329 13.8211 16.7329 13.6939C16.7329 13.4289 16.9477 13.2141 17.2127 13.2141H25.0662C25.4607 13.2141 25.7805 13.5338 25.7805 13.9283V25.6545C25.7805 25.975 25.6721 26.2436 25.4554 26.4603C25.2386 26.6771 24.97 26.7855 24.6496 26.7855C24.3291 26.7855 24.0605 26.6771 23.8438 26.4603C23.627 26.2436 23.5186 25.975 23.5186 25.6545V24.1069ZM13.34 26.22C13.34 25.9077 13.5932 25.6545 13.9055 25.6545H20.6609C20.9899 25.6545 21.2503 25.9229 21.2991 26.2483C21.3394 26.5172 21.1455 26.7855 20.8736 26.7855H13.9055C13.5932 26.7855 13.34 26.5323 13.34 26.22Z" fill="black"/>
<path d="M21.2991 26.2483C21.2503 25.9229 20.9899 25.6545 20.6609 25.6545H13.9055C13.5932 25.6545 13.34 25.9077 13.34 26.22C13.34 26.5323 13.5932 26.7855 13.9055 26.7855H20.8736C21.1455 26.7855 21.3394 26.5172 21.2991 26.2483Z" fill="black"/>
<path d="M16.7329 22.6783C16.7329 23.0728 17.0527 23.3926 17.4472 23.3926H22.8043C23.1988 23.3926 23.5186 23.7124 23.5186 24.1069V25.6545C23.5186 25.975 23.627 26.2436 23.8438 26.4603C24.0605 26.6771 24.3291 26.7855 24.6496 26.7855C24.97 26.7855 25.2386 26.6771 25.4554 26.4603C25.6721 26.2436 25.7805 25.975 25.7805 25.6545V13.9283C25.7805 13.5338 25.4607 13.2141 25.0662 13.2141H17.2127C16.9477 13.2141 16.7329 13.4289 16.7329 13.6939C16.7329 13.8211 16.7834 13.9432 16.8734 14.0332L23.3094 20.4691C23.4433 20.6031 23.5186 20.7848 23.5186 20.9742V21.5474C23.5186 21.9419 23.1988 22.2617 22.8043 22.2617H22.2311C22.0417 22.2617 21.86 22.1864 21.7261 22.0525L18.9382 19.2646C18.8133 19.1397 18.6108 19.1397 18.4859 19.2646C18.222 19.5285 17.9439 19.7642 17.6518 19.9715C17.5035 20.0767 17.3515 20.1698 17.196 20.2508C16.9273 20.3906 16.7329 20.6547 16.7329 20.9575V22.6783Z" fill="black"/>
<path d="M14.6972 18.5861C15.1307 18.5861 15.5218 18.5201 15.8705 18.3882C16.2192 18.2562 16.5632 18.0206 16.9025 17.6813C17.0275 17.5564 17.0275 17.3539 16.9025 17.2289L15.5454 15.8718C15.2118 15.5382 14.8537 15.2555 14.471 15.0238V18.579C14.5456 18.5837 14.621 18.5861 14.6972 18.5861Z" fill="black"/>
<path d="M22.9465 24.8213H11.513C11.2535 24.8213 11.0252 24.9973 10.9769 25.2522C10.6849 26.7938 10.7589 29.0475 13.3334 29.0475H24.6432C25.9555 29.0475 26.6235 28.5787 26.9956 28.0152C27.27 27.5997 26.7396 27.1842 26.267 27.3411C24.35 27.9776 23.6704 26.7878 23.5376 25.3861C23.5081 25.0752 23.2588 24.8213 22.9465 24.8213Z" fill="#ED131C"/>
<g clip-path="url(#clip0_11421_23512)">
<path d="M22.3875 16.1193C22.3095 16.4573 22.6762 16.7231 22.9733 16.5439C23.0987 16.4683 23.2557 16.4687 23.3806 16.545C23.677 16.7262 24.0447 16.4593 23.9671 16.1207C23.9347 15.979 23.983 15.8305 24.093 15.7354C24.3552 15.5085 24.2164 15.0778 23.8711 15.0471C23.7269 15.0343 23.6008 14.9414 23.544 14.8083C23.407 14.4871 22.9488 14.4806 22.8109 14.8014C22.7536 14.9349 22.6275 15.0263 22.4828 15.0392C22.1363 15.0701 22.0001 15.5052 22.2621 15.7341C22.3712 15.8295 22.4201 15.9781 22.3875 16.1193ZM22.0873 17.8232C21.7631 18.0188 21.363 17.7286 21.4484 17.3597L21.6771 16.3711C21.7128 16.2165 21.6602 16.0547 21.5403 15.9507L20.7728 15.2854C20.4867 15.0373 20.6393 14.5673 21.0165 14.5346L22.0327 14.4464C22.1909 14.4326 22.3285 14.3325 22.3904 14.1862L22.7826 13.2583C22.9301 12.9093 23.4246 12.9093 23.5721 13.2583L23.9643 14.1862C24.0261 14.3325 24.1638 14.4326 24.322 14.4464L25.3382 14.5346C25.7154 14.5673 25.868 15.0373 25.5819 15.2854L24.8144 15.9507C24.6945 16.0547 24.6418 16.2165 24.6776 16.3711L24.9063 17.3597C24.9916 17.7286 24.5916 18.0188 24.2674 17.8232L23.3987 17.2992C23.2626 17.2171 23.0921 17.2171 22.956 17.2992L22.0873 17.8232Z" fill="#ED131C"/>
<path d="M22.3875 16.1193C22.3095 16.4573 22.6762 16.7231 22.9733 16.5439C23.0987 16.4683 23.2557 16.4687 23.3806 16.545C23.677 16.7262 24.0447 16.4593 23.9671 16.1207C23.9347 15.979 23.983 15.8305 24.093 15.7354C24.3552 15.5085 24.2164 15.0778 23.8711 15.0471C23.7269 15.0343 23.6008 14.9414 23.544 14.8083C23.407 14.4871 22.9488 14.4806 22.8109 14.8014C22.7536 14.9349 22.6275 15.0263 22.4828 15.0392C22.1363 15.0701 22.0001 15.5052 22.2621 15.7341C22.3712 15.8295 22.4201 15.9781 22.3875 16.1193Z" fill="#ED131C"/>
</g>
<defs>
<clipPath id="clip0_11421_23512">
<rect x="20.125" y="12.084" width="6.78571" height="6.78571" rx="0.141369" fill="white"/>
</clipPath>
</defs>
</svg>
